<svg version="1.1" class="icon" xmlns="http://www.w3.org/2000/svg" viewBox="0 0 1024 1024"
    width="200" height="200">
    <path
        d="M0 0 C1.42876173 0.00222273 2.85752353 0.00439923 4.2862854 0.00653076 C24.85064209 0.04903057 45.1640698 0.41344401 65.5625 3.3125 C66.99604568 3.50816501 68.42964156 3.7034625 69.86328125 3.8984375 C121.26004107 10.99068638 171.31150013 25.13688841 218.30029297 47.25341797 C220.58899077 48.324902 222.88862389 49.36933153 225.19140625 50.41015625 C252.35907961 62.81278974 278.53375736 78.60300461 302.5625 96.3125 C303.6246875 97.09109375 304.686875 97.8696875 305.78125 98.671875 C308.72916946 100.85954154 311.65137054 103.07613564 314.5625 105.3125 C315.10438965 105.72822266 315.6462793 106.14394531 316.20458984 106.57226562 C328.97926304 116.40173773 341.16472774 126.84714496 352.96142578 137.82910156 C354.68315012 139.42428257 356.41721127 141.00535683 358.15234375 142.5859375 C366.50773352 150.23653809 374.37235651 158.21481054 381.99609375 166.59326172 C383.43740009 168.17519427 384.88825863 169.74753422 386.34375 171.31640625 C392.00170562 177.45458958 397.37197455 183.77599913 402.5625 190.3125 C403.32022705 191.26141113 403.32022705 191.26141113 404.09326172 192.22949219 C459.27712431 261.51499175 496.16934253 343.59587242 510.25 431.0625 C510.44045898 432.22458984 510.63091797 433.38667969 510.82714844 434.58398438 C511.47629506 438.81873145 512.03058902 443.06180472 512.5625 447.3125 C512.6844609 448.28364919 512.8064218 449.25479838 512.93207848 450.25537634 C515.68919189 473.04676478 516.00448077 495.64422723 515.96933305 518.57729888 C515.96452867 523.87915894 515.97717357 529.18098528 515.98735046 534.48283386 C516.00439805 544.82090535 516.0054088 555.15891569 516.00013756 565.49699757 C515.99607176 573.90380448 515.99756773 582.31059352 516.00288582 590.7173996 C516.00363424 591.92054654 516.00438266 593.12369348 516.00515376 594.36329941 C516.00668543 596.80843197 516.00822378 599.25356452 516.00976873 601.69869706 C516.02344036 624.53448919 516.01809157 647.37024689 516.00658352 670.20603821 C515.99663464 691.06197983 516.00962989 711.91783296 516.03351771 732.77376094 C516.0579347 754.25524902 516.06751155 775.73669591 516.06086498 797.21819758 C516.0573814 809.25233589 516.05954905 821.28640602 516.07711601 833.32053375 C516.09186963 843.55275592 516.09243102 853.78486174 516.0750451 864.01708171 C516.06656296 869.22870962 516.06431767 874.44012994 516.07969666 879.65174675 C516.09363467 884.43436565 516.08866495 889.21660084 516.06945742 893.99919805 C516.06572521 895.71663204 516.06853778 897.43409747 516.07906907 899.15150324 C516.16677255 914.56595965 513.93499881 929.68562993 508.3125 944.125 C508.01585449 944.90431885 507.71920898 945.6836377 507.41357422 946.48657227 C495.05635064 977.88190501 469.76368288 1001.73894255 439.34765625 1015.3359375 C422.55378355 1022.48907234 405.81553264 1024.6166832 387.706604 1024.57319641 C385.91238934 1024.57622126 384.11817596 1024.58011241 382.32396483 1024.58478898 C377.41894493 1024.59503638 372.51399838 1024.59289538 367.60897255 1024.58860838 C362.30790044 1024.58613492 357.00684571 1024.59516354 351.70578003 1024.60264587 C341.32532543 1024.61538216 330.94489672 1024.61718752 320.56443563 1024.61484561 C312.1143831 1024.61305944 303.6643384 1024.61481852 295.2142868 1024.61907005 C293.40717199 1024.61996284 293.40717199 1024.61996284 291.5635498 1024.62087366 C289.11554561 1024.6220855 286.66754142 1024.62329963 284.21953723 1024.62451603 C261.26564967 1024.63538953 238.31177681 1024.63323123 215.35788843 1024.62713119 C194.42223853 1024.62197423 173.48663533 1024.63318547 152.55099466 1024.65222941 C131.00789944 1024.67167396 109.46482622 1024.67985149 87.92172217 1024.67610615 C75.8460968 1024.67420256 63.77051105 1024.67659791 51.69489288 1024.69082069 C41.40258 1024.70282083 31.11033106 1024.70404459 20.81801715 1024.69203053 C15.58063876 1024.68619889 10.3433768 1024.68488033 5.10600662 1024.69703293 C-24.39709524 1024.76083547 -53.404679 1023.61467456 -82.5625 1018.6875 C-83.30601715 1018.56477722 -84.0495343 1018.44205444 -84.81558228 1018.31561279 C-132.99170844 1010.30629327 -179.53013138 995.67795809 -223.4375 974.3125 C-224.52256836 973.79042969 -225.60763672 973.26835938 -226.72558594 972.73046875 C-262.5301735 955.46360399 -297.4596487 933.95271806 -327.54296875 907.80859375 C-330.23064256 905.49088314 -332.97307505 903.27169807 -335.75 901.0625 C-347.40380153 891.52605583 -358.04085409 880.81011997 -368.7164917 870.20874023 C-369.80534411 869.12794212 -370.89567139 868.04862743 -371.98760986 866.97094727 C-378.2051223 860.82615287 -384.05132923 854.60529178 -389.4777832 847.73974609 C-391.45565362 845.29001548 -393.53679414 842.98596427 -395.6875 840.6875 C-415.36960355 819.02351797 -431.7902096 793.58050945 -446.4375 768.3125 C-446.81696777 767.65797852 -447.19643555 767.00345703 -447.58740234 766.32910156 C-482.81434522 705.13235839 -505.40847712 636.63659191 -512.4375 566.3125 C-512.52363556 565.45200043 -512.60977112 564.59150085 -512.69851685 563.70492554 C-514.34090703 546.75048906 -514.80117096 529.90217131 -514.75 512.875 C-514.74817719 511.6083551 -514.74635437 510.34171021 -514.74447632 509.03668213 C-514.69600962 488.96515532 -514.08623463 469.22155757 -511.4375 449.3125 C-511.35028687 448.65193604 -511.26307373 447.99137207 -511.17321777 447.31079102 C-507.28422636 418.08136209 -501.11798913 389.49715023 -492.4375 361.3125 C-492.09348145 360.19520508 -491.74946289 359.07791016 -491.39501953 357.92675781 C-483.02236441 331.09522807 -472.02586336 305.42111248 -459.4375 280.3125 C-458.98552246 279.4059668 -458.53354492 278.49943359 -458.06787109 277.56542969 C-444.48887905 250.48676794 -427.89032195 225.29550622 -409.4375 201.3125 C-408.75373291 200.41821289 -408.75373291 200.41821289 -408.05615234 199.50585938 C-400.87185323 190.12671681 -393.28400328 181.14319937 -385.4375 172.3125 C-384.57511719 171.33667969 -383.71273437 170.36085937 -382.82421875 169.35546875 C-375.69861103 161.46979621 -368.19052722 153.96142173 -360.6875 146.4375 C-360.14379761 145.89111877 -359.60009521 145.34473755 -359.03991699 144.78179932 C-353.02017229 138.7395878 -346.95328122 132.82488334 -340.4375 127.3125 C-339.30743261 126.32815437 -338.17849668 125.34250803 -337.05078125 124.35546875 C-329.98113424 118.22202369 -322.79550811 112.31451825 -315.29980469 106.70654297 C-313.97758613 105.71678577 -312.65821149 104.72322431 -311.34082031 103.72705078 C-294.73616253 91.18122888 -277.45794743 79.72493832 -259.4375 69.3125 C-258.4781958 68.755625 -258.4781958 68.755625 -257.49951172 68.1875 C-199.39859615 34.65521434 -135.82866978 13.46541487 -69.5 4.0625 C-68.43740967 3.91127686 -67.37481934 3.76005371 -66.2800293 3.60424805 C-62.67064257 3.12330426 -59.057864 2.7000178 -55.4375 2.3125 C-54.6292276 2.22529694 -53.8209552 2.13809387 -52.9881897 2.04824829 C-35.33565103 0.20995181 -17.73141834 -0.04879854 0 0 Z M-47.4375 178.3125 C-48.54899414 178.48410645 -49.66048828 178.65571289 -50.80566406 178.83251953 C-114.54922537 189.01365643 -176.47715469 216.91573513 -224.00390625 261.0625 C-226.04754149 262.95196051 -228.12554318 264.76591918 -230.25 266.5625 C-239.26018748 274.39987382 -247.84613415 283.09554022 -255.4375 292.3125 C-255.87852051 292.83972656 -256.31954102 293.36695313 -256.77392578 293.91015625 C-286.2934476 329.23820433 -329.38965908 389.2914778 -328.390625 437.578125 C-326.84690183 440.38719504 -324.53874118 440.66209844 -321.5625 441.625 C-302.42207302 448.53392184 -288.46700516 462.87130469 -279.7890625 481.0625 C-271.68311326 500.55426234 -271.47166356 521.30991439 -279.03125 541 C-287.69014331 561.39650423 -302.24858077 574.76081437 -322.4375 583.3125 C-324.42652635 584.01122643 -326.42301422 584.69097648 -328.4375 585.3125 C-327.81766448 591.95023224 -326.27103455 598.05521975 -324.375 604.4375 C-323.90755371 606.0153125 -323.90755371 606.0153125 -323.43066406 607.625 C-305.11064502 668.43652589 -270.14483051 723.28496669 -222.4375 765.3125 C-221.9307373 765.76399414 -221.42397461 766.21548828 -220.90185547 766.68066406 C-211.59700504 774.9377913 -201.62068793 782.18265536 -191.4375 789.3125 C-190.51445068 789.96750488 -190.51445068 789.96750488 -189.57275391 790.63574219 C-118.85757484 840.66202034 -26.48662578 859.52206062 58.58203125 845.0234375 C74.84504965 842.15861812 90.80286019 838.23479494 106.5625 833.3125 C107.41247559 833.04888672 108.26245117 832.78527344 109.13818359 832.51367188 C128.69552215 826.33644798 147.25389785 817.46680107 165.5625 808.3125 C165.5625 821.1825 165.5625 834.0525 165.5625 847.3125 C223.6425 847.3125 281.7225 847.3125 341.5625 847.3125 C341.62082236 786.87988559 341.62082236 786.87988559 341.66015625 726.44726562 C341.66407126 718.27579744 341.66811201 710.10432934 341.67236328 701.93286133 C341.67289078 700.90887641 341.67341828 699.88489149 341.67396176 698.82987672 C341.68263093 682.35620056 341.69838211 665.88253854 341.71680559 649.40887073 C341.73559101 632.46871568 341.74663487 615.52856797 341.75067699 598.58840293 C341.75340424 588.15799982 341.76197829 577.72763667 341.77833293 567.29724588 C341.78900684 560.11870353 341.79207744 552.94018146 341.78950275 545.76163176 C341.78823741 541.63659404 341.79000215 537.51162551 341.80091095 533.38660049 C341.9430804 476.66857631 334.94069289 420.74453127 309.5625 369.3125 C308.88877418 367.91302445 308.21558881 366.51328859 307.54296875 365.11328125 C287.63644962 324.11025918 258.25758123 283.66990492 222.16796875 255.36328125 C219.41326711 253.19503783 216.77842624 250.91575431 214.125 248.625 C195.15888962 232.85652213 173.72522108 219.7780006 151.46044922 209.22314453 C149.55465638 208.3087366 147.66981514 207.35945388 145.78515625 206.40234375 C101.9150067 184.46726897 51.32160099 174.79872725 2.5 175 C1.10575806 175.00273422 1.10575806 175.00273422 -0.31665039 175.00552368 C-16.18870854 175.05756933 -31.72995204 175.87085052 -47.4375 178.3125 Z M-393.4375 477.3125 C-403.32182478 490.02616682 -406.28773159 503.52023552 -405.4375 519.3125 C-403.33307483 534.20398322 -395.18082076 546.29225054 -383.5625 555.625 C-371.36706439 564.20067484 -357.99999333 566.63007461 -343.4375 565.3125 C-329.61184829 562.85212113 -316.97222121 556.0426809 -308.4609375 544.671875 C-299.56855315 531.12517885 -295.58765783 517.8492013 -298.5 501.6875 C-301.82472849 487.41251898 -308.91566664 475.06531842 -321.40039062 467.05273438 C-345.8892922 452.81608465 -373.9265968 456.01668767 -393.4375 477.3125 Z "
        fill="#0D6DFC" transform="translate(514.4375,-0.3125)" />
    <path
        d="M0 0 C1.00539322 0.00273422 1.00539322 0.00273422 2.03109741 0.00552368 C13.51060775 0.0577458 24.59280258 0.83155242 35.8125 3.3125 C36.55145508 3.47347168 37.29041016 3.63444336 38.05175781 3.80029297 C67.21676736 10.42638964 93.43347001 25.6480894 114.8125 46.3125 C115.67617188 47.12460937 116.53984375 47.93671875 117.4296875 48.7734375 C144.80713394 75.12742799 162.04675337 114.54647914 163.7578125 152.44140625 C163.77585937 153.38886719 163.79390625 154.33632813 163.8125 155.3125 C163.85117187 156.37339844 163.88984375 157.43429687 163.9296875 158.52734375 C164.79932713 200.7048657 149.0147107 242.21884224 120.0847168 272.94042969 C118.67286629 274.41024692 117.24424638 275.86207353 115.8125 277.3125 C115.27375244 277.87243652 114.73500488 278.43237305 114.17993164 279.00927734 C103.09439552 290.38476457 89.90662168 299.12873575 75.8125 306.3125 C75.14283203 306.66151367 74.47316406 307.01052734 73.78320312 307.37011719 C35.98191546 326.91940085 -9.3418187 329.61166446 -49.82714844 317.09863281 C-74.43912349 308.9014297 -95.01735213 295.54078774 -114.1875 278.3125 C-115.20070313 277.40951172 -115.20070313 277.40951172 -116.234375 276.48828125 C-136.8409812 257.01013205 -151.22493251 229.50176672 -158.1875 202.3125 C-158.39632813 201.52488281 -158.60515625 200.73726562 -158.8203125 199.92578125 C-165.0084686 175.60397786 -164.85447204 146.49996846 -158.1875 122.3125 C-157.92437012 121.35520996 -157.66124023 120.39791992 -157.39013672 119.41162109 C-145.62041316 78.14764972 -118.69417928 42.42863271 -81.1875 21.3125 C-68.07082153 14.19928963 -54.67083397 8.26898465 -40.1875 4.5625 C-39.41760742 4.36374268 -38.64771484 4.16498535 -37.85449219 3.96020508 C-25.36759995 0.93947513 -12.81798625 -0.05591005 0 0 Z "
        fill="#0D6EFC" transform="translate(516.1875,349.6875)" />
</svg>