<svg t="1750482174100" viewBox="0 0 1024 1024" version="1.1"
    xmlns="http://www.w3.org/2000/svg" p-id="9983" width="200" height="200">
    <path d="M448 768v192H256v-192z" fill="#005DBA" p-id="9984"></path>
    <path
        d="M694.656 841.344v45.312l-128 128-45.312-45.312L626.752 864l-105.408-105.344 45.312-45.312z m-557.312-128l45.312 45.312L77.248 864l105.408 105.344-45.312 45.312-128-128v-45.312z"
        fill="#212121" p-id="9985"></path>
    <path d="M992 320v544h-184.256L566.656 622.848 485.504 704H218.496l-58.496-58.496V320z"
        fill="#212121" opacity=".1" p-id="9986"></path>
    <path d="M1024 288v576l-32 32H768v-64h192V320h32zM128 613.504V288l32 32H192v357.504z"
        fill="#212121" opacity=".75" p-id="9987"></path>
    <path d="M992 96v192h-832v-192z" fill="#212121" opacity=".1" p-id="9988"></path>
    <path d="M992 64h-832l-32 32v192l32 32h832l32-32v-192zM960 256H192V128h768z" fill="#212121"
        p-id="9989"></path>
</svg>
